Topmarks-Book-FF.ufo
<glyph name="comma" format="1">
  <advance width="550"/>
  <unicode hex="002C"/>
  <outline>
    <contour>
      <point x="100" y="-310" type="line"/>
      <point x="207" y="207" type="line"/>
      <point x="394" y="207" type="line"/>
      <point x="231" y="-310" type="line"/>
    </contour>
  </outline>
</glyph>
<glyph name="hyphen" format="1">
  <advance width="1247"/>
  <unicode hex="002D"/>
  <outline>
    <contour>
      <point x="229" y="637" type="line"/>
      <point x="229" y="780" type="line"/>
      <point x="1028" y="780" type="line"/>
      <point x="1028" y="637" type="line"/>
    </contour>
  </outline>
</glyph>
<glyph name="three" format="1">
  <advance width="1244"/>
  <unicode hex="0033"/>
  <outline>
    <contour>
      <point x="599" y="-24" type="curve" smooth="yes"/>
      <point x="456" y="-24"/>
      <point x="308" y="16"/>
      <point x="193" y="85" type="curve"/>
      <point x="246" y="225" type="line"/>
      <point x="371" y="159"/>
      <point x="496" y="125"/>
      <point x="604" y="125" type="curve" smooth="yes"/>
      <point x="780" y="125"/>
      <point x="908" y="215"/>
      <point x="908" y="406" type="curve" smooth="yes"/>
      <point x="908" y="600"/>
      <point x="763" y="696"/>
      <point x="524" y="696" type="curve" smooth="yes"/>
      <point x="446" y="696" type="line"/>
      <point x="446" y="844" type="line"/>
      <point x="510" y="844" type="line" smooth="yes"/>
      <point x="736" y="844"/>
      <point x="859" y="906"/>
      <point x="859" y="1095" type="curve" smooth="yes"/>
      <point x="859" y="1111" type="line" smooth="yes"/>
      <point x="854" y="1252"/>
      <point x="728" y="1330"/>
      <point x="579" y="1330" type="curve" smooth="yes"/>
      <point x="466" y="1330"/>
      <point x="338" y="1286"/>
      <point x="239" y="1186" type="curve"/>
      <point x="143" y="1295" type="line"/>
      <point x="246" y="1418"/>
      <point x="414" y="1481"/>
      <point x="576" y="1481" type="curve" smooth="yes"/>
      <point x="802" y="1481"/>
      <point x="1017" y="1358"/>
      <point x="1024" y="1109" type="curve" smooth="yes"/>
      <point x="1024" y="1093" type="line" smooth="yes"/>
      <point x="1024" y="930"/>
      <point x="951" y="817"/>
      <point x="789" y="769" type="curve"/>
      <point x="979" y="730"/>
      <point x="1078" y="593"/>
      <point x="1078" y="404" type="curve" smooth="yes"/>
      <point x="1078" y="98"/>
      <point x="848" y="-24"/>
    </contour>
  </outline>
</glyph>
<glyph name="five" format="1">
  <advance width="1244"/>
  <unicode hex="0035"/>
  <outline>
    <contour>
      <point x="627" y="-24" type="curve" smooth="yes"/>
      <point x="466" y="-24"/>
      <point x="291" y="46"/>
      <point x="172" y="179" type="curve"/>
      <point x="263" y="295" type="line"/>
      <point x="371" y="171"/>
      <point x="506" y="123"/>
      <point x="625" y="123" type="curve" smooth="yes"/>
      <point x="827" y="123"/>
      <point x="936" y="267"/>
      <point x="936" y="468" type="curve" smooth="yes"/>
      <point x="936" y="633"/>
      <point x="850" y="772"/>
      <point x="674" y="772" type="curve" smooth="yes"/>
      <point x="550" y="772"/>
      <point x="452" y="718"/>
      <point x="411" y="656" type="curve"/>
      <point x="254" y="698" type="line"/>
      <point x="269" y="1456" type="line"/>
      <point x="1000" y="1456" type="line"/>
      <point x="1000" y="1306" type="line"/>
      <point x="422" y="1306" type="line"/>
      <point x="401" y="814" type="line"/>
      <point x="463" y="880"/>
      <point x="576" y="917"/>
      <point x="671" y="917" type="curve" smooth="yes"/>
      <point x="921" y="917"/>
      <point x="1096" y="738"/>
      <point x="1096" y="468" type="curve" smooth="yes"/>
      <point x="1096" y="196"/>
      <point x="935" y="-24"/>
    </contour>
  </outline>
</glyph>
<glyph name="six" format="1">
  <advance width="1244"/>
  <unicode hex="0036"/>
  <outline>
    <contour>
      <point x="675" y="-24" type="curve" smooth="yes"/>
      <point x="924" y="-24"/>
      <point x="1127" y="175"/>
      <point x="1127" y="464" type="curve" smooth="yes"/>
      <point x="1127" y="735"/>
      <point x="944" y="946"/>
      <point x="687" y="946" type="curve" smooth="yes"/>
      <point x="581" y="946"/>
      <point x="407" y="890"/>
      <point x="342" y="768" type="curve"/>
      <point x="393" y="1072"/>
      <point x="592" y="1312"/>
      <point x="929" y="1359" type="curve"/>
      <point x="895" y="1492" type="line"/>
      <point x="303" y="1399"/>
      <point x="140" y="890"/>
      <point x="168" y="501" type="curve" smooth="yes"/>
      <point x="187" y="240"/>
      <point x="331" y="-24"/>
    </contour>
    <contour>
      <point x="673" y="126" type="curve" smooth="yes"/>
      <point x="457" y="126"/>
      <point x="335" y="292"/>
      <point x="335" y="469" type="curve" smooth="yes"/>
      <point x="335" y="660"/>
      <point x="480" y="802"/>
      <point x="665" y="802" type="curve" smooth="yes"/>
      <point x="870" y="802"/>
      <point x="960" y="652"/>
      <point x="960" y="459" type="curve" smooth="yes"/>
      <point x="960" y="254"/>
      <point x="850" y="126"/>
    </contour>
  </outline>
</glyph>
<glyph name="semicolon" format="1">
  <advance width="550"/>
  <unicode hex="003B"/>
  <outline>
    <contour>
      <point x="110" y="-256" type="line"/>
      <point x="216" y="207" type="line"/>
      <point x="404" y="207" type="line"/>
      <point x="241" y="-256" type="line"/>
    </contour>
    <contour>
      <point x="169" y="816" type="line"/>
      <point x="169" y="1026" type="line"/>
      <point x="386" y="1026" type="line"/>
      <point x="386" y="816" type="line"/>
    </contour>
  </outline>
</glyph>
<glyph name="greater" format="1">
  <advance width="1411"/>
  <unicode hex="003E"/>
  <outline>
    <contour>
      <point x="232" y="58" type="line"/>
      <point x="232" y="212" type="line"/>
      <point x="1000" y="555" type="line"/>
      <point x="237" y="926" type="line"/>
      <point x="237" y="1078" type="line"/>
      <point x="1221" y="594" type="line"/>
      <point x="1221" y="505" type="line"/>
    </contour>
  </outline>
</glyph>
<glyph name="G" format="1">
  <advance width="1485"/>
  <unicode hex="0047"/>
  <outline>
    <contour>
      <point x="381" y="-24"/>
      <point x="116" y="239"/>
      <point x="116" y="701" type="curve" smooth="yes"/>
      <point x="116" y="1220"/>
      <point x="448" y="1480"/>
      <point x="815" y="1480" type="curve" smooth="yes"/>
      <point x="976" y="1480"/>
      <point x="1143" y="1430"/>
      <point x="1292" y="1331" type="curve"/>
      <point x="1218" y="1208" type="line"/>
      <point x="1084" y="1290"/>
      <point x="948" y="1329"/>
      <point x="824" y="1329" type="curve" smooth="yes"/>
      <point x="530" y="1329"/>
      <point x="299" y="1110"/>
      <point x="299" y="714" type="curve" smooth="yes"/>
      <point x="299" y="344"/>
      <point x="484" y="126"/>
      <point x="840" y="126" type="curve" smooth="yes"/>
      <point x="956" y="126"/>
      <point x="1059" y="138"/>
      <point x="1145" y="174" type="curve"/>
      <point x="1145" y="608" type="line"/>
      <point x="742" y="608" type="line"/>
      <point x="742" y="757" type="line"/>
      <point x="1317" y="757" type="line"/>
      <point x="1317" y="81" type="line"/>
      <point x="1172" y="13"/>
      <point x="1018" y="-24"/>
      <point x="827" y="-24" type="curve" smooth="yes"/>
    </contour>
  </outline>
</glyph>
<glyph name="S" format="1">
  <advance width="1186"/>
  <unicode hex="0053"/>
  <outline>
    <contour>
      <point x="615" y="-24" type="curve" smooth="yes"/>
      <point x="425" y="-24"/>
      <point x="245" y="59"/>
      <point x="154" y="128" type="curve"/>
      <point x="205" y="278" type="line"/>
      <point x="298" y="201"/>
      <point x="466" y="126"/>
      <point x="611" y="126" type="curve" smooth="yes"/>
      <point x="795" y="126"/>
      <point x="893" y="231"/>
      <point x="893" y="394" type="curve" smooth="yes"/>
      <point x="893" y="515"/>
      <point x="842" y="591"/>
      <point x="542" y="685" type="curve" smooth="yes"/>
      <point x="260" y="774"/>
      <point x="148.026" y="884"/>
      <point x="150.026" y="1105" type="curve" smooth="yes"/>
      <point x="152.026" y="1346"/>
      <point x="351" y="1480"/>
      <point x="607" y="1480" type="curve" smooth="yes"/>
      <point x="780" y="1480"/>
      <point x="914.026" y="1425"/>
      <point x="1020.03" y="1348" type="curve"/>
      <point x="954.026" y="1217" type="line"/>
      <point x="872.026" y="1276"/>
      <point x="752" y="1330"/>
      <point x="627" y="1330" type="curve" smooth="yes"/>
      <point x="446" y="1330"/>
      <point x="327.026" y="1258"/>
      <point x="324.026" y="1114" type="curve" smooth="yes"/>
      <point x="320.026" y="968"/>
      <point x="381" y="909"/>
      <point x="642" y="825" type="curve"/>
      <point x="977" y="719"/>
      <point x="1062" y="593"/>
      <point x="1062" y="391" type="curve" smooth="yes"/>
      <point x="1062" y="146"/>
      <point x="895" y="-24"/>
    </contour>
  </outline>
</glyph>
<glyph name="Z" format="1">
  <advance width="1209"/>
  <unicode hex="005A"/>
  <outline>
    <contour>
      <point x="102" y="0" type="line"/>
      <point x="102" y="92" type="line"/>
      <point x="909" y="1318" type="line"/>
      <point x="134" y="1318" type="line"/>
      <point x="134" y="1456" type="line"/>
      <point x="1141" y="1456" type="line"/>
      <point x="1141" y="1368" type="line"/>
      <point x="330" y="138" type="line"/>
      <point x="1133" y="138" type="line"/>
      <point x="1133" y="0" type="line"/>
    </contour>
  </outline>
</glyph>
<glyph name="backslash" format="1">
  <advance width="703"/>
  <unicode hex="005C"/>
  <outline>
    <contour>
      <point x="592" y="0" type="line"/>
      <point x="-37" y="1456" type="line"/>
      <point x="130" y="1456" type="line"/>
      <point x="755" y="0" type="line"/>
    </contour>
  </outline>
</glyph>
<glyph name="bracketright" format="1">
  <advance width="638"/>
  <unicode hex="005D"/>
  <outline>
    <contour>
      <point x="476" y="1510" type="line"/>
      <point x="476" y="-200" type="line"/>
      <point x="120" y="-200" type="line"/>
      <point x="120" y="-78" type="line"/>
      <point x="313" y="-78" type="line"/>
      <point x="313" y="1388" type="line"/>
      <point x="119" y="1388" type="line"/>
      <point x="119" y="1510" type="line"/>
    </contour>
  </outline>
</glyph>
<glyph name="asciicircum" format="1">
  <advance width="1304"/>
  <unicode hex="005E"/>
  <outline>
    <contour>
      <point x="128" y="550" type="line"/>
      <point x="600" y="1432" type="line"/>
      <point x="697" y="1432" type="line"/>
      <point x="1176" y="550" type="line"/>
      <point x="1021" y="550" type="line"/>
      <point x="647" y="1260" type="line"/>
      <point x="284" y="550" type="line"/>
    </contour>
  </outline>
</glyph>
<glyph name="a" format="1">
  <advance width="1198"/>
  <unicode hex="0061"/>
  <outline>
    <contour>
      <point x="513" y="-22" type="curve" smooth="yes"/>
      <point x="662" y="-22"/>
      <point x="792" y="48"/>
      <point x="858" y="161" type="curve"/>
      <point x="885" y="49"/>
      <point x="959" y="-14"/>
      <point x="1119" y="-14" type="curve"/>
      <point x="1148" y="121" type="line"/>
      <point x="1033" y="121"/>
      <point x="1003" y="175"/>
      <point x="1003" y="278" type="curve" smooth="yes"/>
      <point x="1003" y="966" type="line"/>
      <point x="923" y="1018"/>
      <point x="784" y="1052"/>
      <point x="657" y="1052" type="curve" smooth="yes"/>
      <point x="332" y="1052"/>
      <point x="112" y="804"/>
      <point x="112" y="438" type="curve" smooth="yes"/>
      <point x="112" y="162"/>
      <point x="278" y="-22"/>
    </contour>
    <contour>
      <point x="537" y="114" type="curve" smooth="yes"/>
      <point x="384" y="114"/>
      <point x="282" y="248"/>
      <point x="282" y="448" type="curve" smooth="yes"/>
      <point x="282" y="726"/>
      <point x="427" y="916"/>
      <point x="654" y="916" type="curve" smooth="yes"/>
      <point x="726" y="916"/>
      <point x="799" y="902"/>
      <point x="839" y="881" type="curve"/>
      <point x="839" y="453" type="line" smooth="yes"/>
      <point x="839" y="260"/>
      <point x="722" y="114"/>
    </contour>
  </outline>
</glyph>
<glyph name="c" format="1">
  <advance width="1024"/>
  <unicode hex="0063"/>
  <outline>
    <contour>
      <point x="730" y="-22"/>
      <point x="857" y="21"/>
      <point x="960" y="102" type="curve"/>
      <point x="902" y="226" type="line"/>
      <point x="826" y="157"/>
      <point x="719" y="114"/>
      <point x="619" y="114" type="curve" smooth="yes"/>
      <point x="435" y="114"/>
      <point x="282" y="253"/>
      <point x="282" y="510" type="curve" smooth="yes"/>
      <point x="282" y="785"/>
      <point x="451" y="915"/>
      <point x="636" y="915" type="curve" smooth="yes"/>
      <point x="722" y="915"/>
      <point x="811" y="881"/>
      <point x="888" y="826" type="curve"/>
      <point x="939" y="948" type="line"/>
      <point x="842" y="1018"/>
      <point x="731" y="1052"/>
      <point x="622" y="1052" type="curve" smooth="yes"/>
      <point x="360" y="1052"/>
      <point x="112" y="857"/>
      <point x="112" y="511" type="curve" smooth="yes"/>
      <point x="112" y="179"/>
      <point x="340" y="-22"/>
      <point x="605" y="-22" type="curve" smooth="yes"/>
    </contour>
  </outline>
</glyph>
<glyph name="d" format="1">
  <advance width="1237"/>
  <unicode hex="0064"/>
  <outline>
    <contour>
      <point x="283" y="463" type="curve" smooth="yes"/>
      <point x="283" y="718"/>
      <point x="420" y="916"/>
      <point x="661" y="916" type="curve" smooth="yes"/>
      <point x="719" y="916"/>
      <point x="782" y="905"/>
      <point x="852" y="880" type="curve"/>
      <point x="852" y="497" type="line" smooth="yes"/>
      <point x="852" y="258"/>
      <point x="726" y="114"/>
      <point x="537" y="114" type="curve" smooth="yes"/>
      <point x="394" y="114"/>
      <point x="283" y="233"/>
    </contour>
    <contour>
      <point x="871" y="161" type="curve"/>
      <point x="898" y="44"/>
      <point x="982" y="-14"/>
      <point x="1132" y="-14" type="curve"/>
      <point x="1161" y="121" type="line"/>
      <point x="1030" y="121"/>
      <point x="1016" y="189"/>
      <point x="1016" y="314" type="curve" smooth="yes"/>
      <point x="1016" y="1500" type="line"/>
      <point x="851" y="1500" type="line"/>
      <point x="851" y="1014" type="line"/>
      <point x="786" y="1037"/>
      <point x="716" y="1052"/>
      <point x="651" y="1052" type="curve" smooth="yes"/>
      <point x="375" y="1052"/>
      <point x="112" y="859"/>
      <point x="112" y="464" type="curve" smooth="yes"/>
      <point x="112" y="149"/>
      <point x="290" y="-22"/>
      <point x="524" y="-22" type="curve" smooth="yes"/>
      <point x="687" y="-22"/>
      <point x="802" y="44"/>
    </contour>
  </outline>
</glyph>
<glyph name="f" format="1">
  <advance width="711"/>
  <unicode hex="0066"/>
  <outline>
    <contour>
      <point x="425" y="0" type="line"/>
      <point x="425" y="919" type="line"/>
      <point x="695" y="919" type="line"/>
      <point x="695" y="1026" type="line"/>
      <point x="425" y="1026" type="line"/>
      <point x="425" y="1159" type="line" smooth="yes"/>
      <point x="425" y="1306"/>
      <point x="504" y="1374"/>
      <point x="638" y="1374" type="curve" smooth="yes"/>
      <point x="743" y="1374" type="line"/>
      <point x="743" y="1500" type="line"/>
      <point x="606" y="1500" type="line" smooth="yes"/>
      <point x="363" y="1500"/>
      <point x="266" y="1350"/>
      <point x="266" y="1147" type="curve" smooth="yes"/>
      <point x="266" y="1026" type="line"/>
      <point x="64" y="1026" type="line"/>
      <point x="64" y="919" type="line"/>
      <point x="266" y="919" type="line"/>
      <point x="266" y="0" type="line"/>
    </contour>
  </outline>
</glyph>
<glyph name="h" format="1">
  <advance width="1229"/>
  <unicode hex="0068"/>
  <outline>
    <contour>
      <point x="1164" y="-20" type="line"/>
      <point x="1185" y="110" type="line"/>
      <point x="1161" y="110" type="line" smooth="yes"/>
      <point x="1058" y="110"/>
      <point x="1026" y="172"/>
      <point x="1026" y="320" type="curve" smooth="yes"/>
      <point x="1026" y="569" type="line" smooth="yes"/>
      <point x="1026" y="907"/>
      <point x="897" y="1044"/>
      <point x="677" y="1052" type="curve" smooth="yes"/>
      <point x="531" y="1057"/>
      <point x="391" y="984"/>
      <point x="324" y="867" type="curve"/>
      <point x="324" y="1500" type="line"/>
      <point x="160" y="1500" type="line"/>
      <point x="160" y="0" type="line"/>
      <point x="324" y="0" type="line"/>
      <point x="324" y="565" type="line" smooth="yes"/>
      <point x="324" y="814"/>
      <point x="510" y="929"/>
      <point x="656" y="916" type="curve" smooth="yes"/>
      <point x="804" y="903"/>
      <point x="862" y="809"/>
      <point x="862" y="563" type="curve" smooth="yes"/>
      <point x="862" y="294" type="line" smooth="yes"/>
      <point x="862" y="74"/>
      <point x="943" y="-20"/>
      <point x="1151" y="-20" type="curve" smooth="yes"/>
    </contour>
  </outline>
</glyph>
<glyph name="l" format="1">
  <advance width="708"/>
  <unicode hex="006C"/>
  <outline>
    <contour>
      <point x="679" y="140" type="line"/>
      <point x="612" y="122"/>
      <point x="552" y="111"/>
      <point x="502" y="111" type="curve" smooth="yes"/>
      <point x="404" y="111"/>
      <point x="344" y="156"/>
      <point x="344" y="294" type="curve" smooth="yes"/>
      <point x="344" y="1500" type="line"/>
      <point x="180" y="1500" type="line"/>
      <point x="180" y="300" type="line" smooth="yes"/>
      <point x="180" y="79"/>
      <point x="297" y="-21"/>
      <point x="474" y="-21" type="curve" smooth="yes"/>
      <point x="543" y="-21"/>
      <point x="621" y="-6"/>
      <point x="704" y="23" type="curve"/>
    </contour>
  </outline>
</glyph>
<glyph name="n" format="1">
  <advance width="1263"/>
  <unicode hex="006E"/>
  <outline>
    <contour>
      <point x="1221.0" y="121.0" type="line"/>
      <point x="1182.0" y="121.0" type="line" smooth="yes"/>
      <point x="1077.0" y="121.0"/>
      <point x="1054.0" y="181.0"/>
      <point x="1054.0" y="311.0" type="curve" smooth="yes"/>
      <point x="1054.0" y="588.0" type="line" smooth="yes"/>
      <point x="1054.0" y="918.0"/>
      <point x="896.0" y="1052.0"/>
      <point x="700.0" y="1052.0" type="curve" smooth="yes"/>
      <point x="520.0" y="1052.0"/>
      <point x="397.0" y="961.0"/>
      <point x="326.0" y="833.0" type="curve"/>
      <point x="315.0" y="911.0"/>
      <point x="270.0" y="978.0"/>
      <point x="218.0" y="1023.0" type="curve"/>
      <point x="76.0" y="941.0" type="line"/>
      <point x="124.0" y="901.0"/>
      <point x="199.0" y="817.0"/>
      <point x="199.0" y="683.0" type="curve" smooth="yes"/>
      <point x="199.0" y="0.0" type="line"/>
      <point x="363.0" y="0.0" type="line"/>
      <point x="363.0" y="522.0" type="line" smooth="yes"/>
      <point x="363.0" y="800.0"/>
      <point x="519.0" y="916.0"/>
      <point x="667.0" y="916.0" type="curve" smooth="yes"/>
      <point x="812.0" y="916.0"/>
      <point x="890.0" y="826.0"/>
      <point x="890.0" y="580.0" type="curve" smooth="yes"/>
      <point x="890.0" y="338.0" type="line" smooth="yes"/>
      <point x="890.0" y="112.0"/>
      <point x="944.0" y="-14.0"/>
      <point x="1166.0" y="-14.0" type="curve" smooth="yes"/>
      <point x="1194.0" y="-14.0" type="line"/>
    </contour>
  </outline>
</glyph>
<glyph name="braceleft" format="1">
  <advance width="744"/>
  <unicode hex="007B"/>
  <outline>
    <contour>
      <point x="653" y="-225" type="line"/>
      <point x="429" y="-219"/>
      <point x="271" y="-128"/>
      <point x="271" y="69" type="curve" smooth="yes"/>
      <point x="271" y="319" type="line" smooth="yes"/>
      <point x="271" y="449"/>
      <point x="219" y="548"/>
      <point x="79" y="560" type="curve"/>
      <point x="79" y="695" type="line"/>
      <point x="194" y="703"/>
      <point x="270" y="783"/>
      <point x="271" y="912" type="curve"/>
      <point x="271" y="1156" type="line" smooth="yes"/>
      <point x="271" y="1350"/>
      <point x="392" y="1480"/>
      <point x="654" y="1480" type="curve"/>
      <point x="654" y="1337" type="line"/>
      <point x="541" y="1335"/>
      <point x="438" y="1281"/>
      <point x="438" y="1148" type="curve" smooth="yes"/>
      <point x="438" y="875" type="line" smooth="yes"/>
      <point x="438" y="736"/>
      <point x="364" y="657"/>
      <point x="259" y="625" type="curve"/>
      <point x="376" y="582"/>
      <point x="438" y="467"/>
      <point x="438" y="360" type="curve" smooth="yes"/>
      <point x="438" y="128" type="line" smooth="yes"/>
      <point x="438" y="-42"/>
      <point x="542" y="-82"/>
      <point x="653" y="-82" type="curve"/>
    </contour>
  </outline>
</glyph>
<glyph name="asciitilde" format="1">
  <advance width="1298"/>
  <unicode hex="007E"/>
  <outline>
    <contour>
      <point x="247" y="385" type="line"/>
      <point x="267" y="475"/>
      <point x="323" y="571"/>
      <point x="429" y="571" type="curve" smooth="yes"/>
      <point x="515.503" y="571"/>
      <point x="634.144" y="497.526"/>
      <point x="733" y="452" type="curve" smooth="yes"/>
      <point x="773" y="433"/>
      <point x="823" y="410"/>
      <point x="873" y="410" type="curve" smooth="yes"/>
      <point x="1028.43" y="410"/>
      <point x="1128.94" y="527.814"/>
      <point x="1166" y="684" type="curve"/>
      <point x="1041" y="723" type="line"/>
      <point x="1023" y="641"/>
      <point x="970" y="545"/>
      <point x="874" y="545" type="curve" smooth="yes"/>
      <point x="803.218" y="545"/>
      <point x="685.974" y="623.395"/>
      <point x="587" y="664" type="curve" smooth="yes"/>
      <point x="540" y="683"/>
      <point x="486" y="705"/>
      <point x="427" y="705" type="curve" smooth="yes"/>
      <point x="273.39" y="705"/>
      <point x="164.45" y="592.785"/>
      <point x="132" y="440" type="curve"/>
    </contour>
  </outline>
</glyph>
<glyph name="cent" format="1">
  <advance width="1180"/>
  <unicode hex="00A2"/>
  <outline>
    <contour>
      <point x="602" y="-235" type="line"/>
      <point x="602" y="-20" type="line"/>
      <point x="347" y="6"/>
      <point x="154" y="213"/>
      <point x="154" y="503" type="curve" smooth="yes"/>
      <point x="154" y="805"/>
      <point x="326" y="1024"/>
      <point x="602" y="1049" type="curve"/>
      <point x="602" y="1281" type="line"/>
      <point x="710" y="1281" type="line"/>
      <point x="710" y="1049" type="line"/>
      <point x="839" y="1039"/>
      <point x="941" y="991"/>
      <point x="1001" y="912" type="curve"/>
      <point x="924" y="801" type="line"/>
      <point x="875" y="862"/>
      <point x="802" y="898"/>
      <point x="710" y="907" type="curve"/>
      <point x="710" y="120" type="line"/>
      <point x="792" y="129"/>
      <point x="885" y="159"/>
      <point x="981" y="225" type="curve"/>
      <point x="1017" y="87" type="line"/>
      <point x="911" y="23"/>
      <point x="805" y="-10"/>
      <point x="710" y="-20" type="curve"/>
      <point x="710" y="-235" type="line"/>
    </contour>
    <contour>
      <point x="602" y="122" type="curve"/>
      <point x="602" y="904" type="line"/>
      <point x="422" y="874"/>
      <point x="327" y="714"/>
      <point x="327" y="508" type="curve" smooth="yes"/>
      <point x="327" y="285"/>
      <point x="439" y="148"/>
    </contour>
  </outline>
</glyph>
<glyph name="currency" format="1">
  <advance width="1223"/>
  <unicode hex="00A4"/>
  <outline>
    <contour>
      <point x="980" y="210" type="line"/>
      <point x="814" y="371" type="line"/>
      <point x="748" y="310"/>
      <point x="660" y="274"/>
      <point x="564" y="274" type="curve" smooth="yes"/>
      <point x="475" y="274"/>
      <point x="392" y="308"/>
      <point x="327" y="363" type="curve"/>
      <point x="167" y="195" type="line"/>
      <point x="131" y="232" type="line"/>
      <point x="290" y="398" type="line"/>
      <point x="226" y="467"/>
      <point x="185" y="559"/>
      <point x="185" y="661" type="curve" smooth="yes"/>
      <point x="185" y="754"/>
      <point x="221" y="840"/>
      <point x="279" y="908" type="curve"/>
      <point x="116" y="1065" type="line"/>
      <point x="155" y="1104" type="line"/>
      <point x="315" y="947" type="line"/>
      <point x="384" y="1011"/>
      <point x="476" y="1050"/>
      <point x="573" y="1048" type="curve" smooth="yes"/>
      <point x="661" y="1046"/>
      <point x="743" y="1012"/>
      <point x="806" y="956" type="curve"/>
      <point x="962" y="1120" type="line"/>
      <point x="1002" y="1081" type="line"/>
      <point x="844" y="917" type="line"/>
      <point x="908" y="846"/>
      <point x="945" y="753"/>
      <point x="943" y="651" type="curve" smooth="yes"/>
      <point x="941" y="557"/>
      <point x="906" y="473"/>
      <point x="849" y="408" type="curve"/>
      <point x="1017" y="246" type="line"/>
    </contour>
    <contour>
      <point x="562" y="351" type="curve" smooth="yes"/>
      <point x="724" y="351"/>
      <point x="847" y="482"/>
      <point x="851" y="651" type="curve" smooth="yes"/>
      <point x="855" y="820"/>
      <point x="731" y="961"/>
      <point x="570" y="965" type="curve" smooth="yes"/>
      <point x="408" y="969"/>
      <point x="273" y="827"/>
      <point x="273" y="658" type="curve" smooth="yes"/>
      <point x="273" y="489"/>
      <point x="400" y="351"/>
    </contour>
  </outline>
</glyph>
<glyph name="registered" format="1">
  <advance width="1784"/>
  <unicode hex="00AE"/>
  <outline>
    <contour>
      <point x="868" y="1480" type="curve" smooth="yes"/>
      <point x="454" y="1480"/>
      <point x="116" y="1141"/>
      <point x="116" y="727" type="curve" smooth="yes"/>
      <point x="116" y="314"/>
      <point x="454" y="-25"/>
      <point x="868" y="-25" type="curve" smooth="yes"/>
      <point x="1282" y="-25"/>
      <point x="1620" y="314"/>
      <point x="1620" y="727" type="curve" smooth="yes"/>
      <point x="1620" y="1141"/>
      <point x="1282" y="1480"/>
    </contour>
    <contour>
      <point x="867" y="80" type="curve" smooth="yes"/>
      <point x="515" y="80"/>
      <point x="237" y="374"/>
      <point x="237" y="725" type="curve" smooth="yes"/>
      <point x="237" y="1077"/>
      <point x="515" y="1371"/>
      <point x="867" y="1371" type="curve" smooth="yes"/>
      <point x="1218" y="1371"/>
      <point x="1496" y="1077"/>
      <point x="1496" y="725" type="curve" smooth="yes"/>
      <point x="1496" y="374"/>
      <point x="1218" y="80"/>
    </contour>
    <contour>
      <point x="715" y="803" type="line"/>
      <point x="715" y="1072" type="line"/>
      <point x="786" y="1072" type="line" smooth="yes"/>
      <point x="933" y="1072"/>
      <point x="1054" y="1086"/>
      <point x="1054" y="935" type="curve" smooth="yes"/>
      <point x="1054" y="799"/>
      <point x="919" y="803"/>
      <point x="787" y="803" type="curve" smooth="yes"/>
    </contour>
    <contour>
      <point x="717" y="293" type="line"/>
      <point x="717" y="684" type="line"/>
      <point x="845" y="684" type="line"/>
      <point x="1060" y="293" type="line"/>
      <point x="1221" y="293" type="line"/>
      <point x="980" y="706" type="line"/>
      <point x="1106" y="731"/>
      <point x="1203" y="802"/>
      <point x="1203" y="950" type="curve" smooth="yes"/>
      <point x="1203" y="1116"/>
      <point x="1069" y="1192"/>
      <point x="789" y="1192" type="curve" smooth="yes"/>
      <point x="575" y="1192" type="line"/>
      <point x="575" y="293" type="line"/>
    </contour>
  </outline>
</glyph>
<glyph name="degree" format="1">
  <advance width="854"/>
  <unicode hex="00B0"/>
  <outline>
    <contour>
      <point x="427" y="936" type="curve" smooth="yes"/>
      <point x="310" y="936"/>
      <point x="223" y="1015"/>
      <point x="223" y="1149" type="curve" smooth="yes"/>
      <point x="223" y="1255"/>
      <point x="292" y="1359"/>
      <point x="427" y="1359" type="curve" smooth="yes"/>
      <point x="536" y="1359"/>
      <point x="631" y="1283"/>
      <point x="631" y="1149" type="curve" smooth="yes"/>
      <point x="631" y="1043"/>
      <point x="563" y="936"/>
    </contour>
    <contour>
      <point x="427" y="815" type="curve" smooth="yes"/>
      <point x="590" y="815"/>
      <point x="763" y="930"/>
      <point x="763" y="1148" type="curve" smooth="yes"/>
      <point x="763" y="1322"/>
      <point x="634" y="1480"/>
      <point x="427" y="1480" type="curve" smooth="yes"/>
      <point x="262" y="1480"/>
      <point x="91" y="1365"/>
      <point x="91" y="1148" type="curve" smooth="yes"/>
      <point x="91" y="975"/>
      <point x="222" y="815"/>
    </contour>
  </outline>
</glyph>
<glyph name="periodcentered" format="1">
  <advance width="455"/>
  <unicode hex="00B7"/>
  <outline>
    <contour>
      <point x="119" y="816" type="line"/>
      <point x="119" y="1026" type="line"/>
      <point x="336" y="1026" type="line"/>
      <point x="336" y="816" type="line"/>
    </contour>
  </outline>
</glyph>
<glyph name="guillemotright" format="1">
  <advance width="1152"/>
  <unicode hex="00BB"/>
  <outline>
    <contour>
      <point x="726" y="916" type="line"/>
      <point x="995" y="544" type="line"/>
      <point x="721" y="173" type="line"/>
      <point x="570" y="173" type="line"/>
      <point x="823" y="544" type="line"/>
      <point x="577" y="916" type="line"/>
    </contour>
    <contour>
      <point x="343" y="916" type="line"/>
      <point x="605" y="544" type="line"/>
      <point x="338" y="173" type="line"/>
      <point x="178" y="173" type="line"/>
      <point x="442" y="544" type="line"/>
      <point x="185" y="916" type="line"/>
    </contour>
  </outline>
</glyph>
<glyph name="Oslash" format="1">
  <advance width="1626"/>
  <unicode hex="00D8"/>
  <outline>
    <component base="O"/>
    <contour>
      <point x="521" y="-175" type="line"/>
      <point x="418" y="-142" type="line"/>
      <point x="1125" y="1604" type="line"/>
      <point x="1232" y="1571" type="line"/>
    </contour>
  </outline>
</glyph>
<glyph name="eth" format="1">
  <advance width="1173"/>
  <unicode hex="00F0"/>
  <outline>
    <contour>
      <point x="589" y="-22" type="curve" smooth="yes"/>
      <point x="926" y="-22"/>
      <point x="1100" y="267"/>
      <point x="1077" y="672" type="curve" smooth="yes"/>
      <point x="1047" y="1198"/>
      <point x="693" y="1416"/>
      <point x="467" y="1490" type="curve"/>
      <point x="392" y="1383" type="line"/>
      <point x="534" y="1340"/>
      <point x="903" y="1140"/>
      <point x="902" y="733" type="curve"/>
      <point x="902" y="723" type="line"/>
      <point x="833" y="838"/>
      <point x="729" y="915"/>
      <point x="556" y="915" type="curve" smooth="yes"/>
      <point x="299" y="915"/>
      <point x="98" y="738.293"/>
      <point x="98" y="446" type="curve" smooth="yes"/>
      <point x="98" y="185.789"/>
      <point x="288" y="-22"/>
    </contour>
    <contour>
      <point x="582" y="118" type="curve" smooth="yes"/>
      <point x="408" y="118"/>
      <point x="274" y="238.615"/>
      <point x="274" y="441" type="curve" smooth="yes"/>
      <point x="274" y="638"/>
      <point x="391" y="775"/>
      <point x="582" y="775" type="curve" smooth="yes"/>
      <point x="745" y="775"/>
      <point x="845" y="664"/>
      <point x="887" y="536" type="curve"/>
      <point x="887" y="310"/>
      <point x="798" y="118"/>
    </contour>
    <contour>
      <point x="467" y="1156" type="line"/>
      <point x="529" y="1061" type="line"/>
      <point x="994" y="1361" type="line"/>
      <point x="933" y="1456" type="line"/>
    </contour>
  </outline>
</glyph>
<glyph name="circumflex" format="1">
  <advance width="709"/>
  <unicode hex="02C6"/>
  <outline>
    <contour>
      <point x="273" y="1456" type="line"/>
      <point x="45" y="1132" type="line"/>
      <point x="171" y="1132" type="line"/>
      <point x="349" y="1348" type="line"/>
      <point x="527" y="1132" type="line"/>
      <point x="659" y="1132" type="line"/>
      <point x="430" y="1456" type="line"/>
    </contour>
  </outline>
</glyph>
<glyph name="ring" format="1">
  <advance width="616"/>
  <unicode hex="02DA"/>
  <outline>
    <contour>
      <point x="308" y="1480" type="curve" smooth="yes"/>
      <point x="204" y="1480"/>
      <point x="118" y="1404"/>
      <point x="118" y="1300" type="curve" smooth="yes"/>
      <point x="118" y="1195"/>
      <point x="204" y="1120"/>
      <point x="308" y="1120" type="curve" smooth="yes"/>
      <point x="413" y="1120"/>
      <point x="498" y="1195"/>
      <point x="498" y="1300" type="curve" smooth="yes"/>
      <point x="498" y="1404"/>
      <point x="413" y="1480"/>
    </contour>
    <contour>
      <point x="308" y="1195" type="curve" smooth="yes"/>
      <point x="250" y="1195"/>
      <point x="207" y="1243"/>
      <point x="207" y="1301" type="curve" smooth="yes"/>
      <point x="207" y="1358"/>
      <point x="250" y="1406"/>
      <point x="308" y="1406" type="curve" smooth="yes"/>
      <point x="365" y="1406"/>
      <point x="409" y="1358"/>
      <point x="409" y="1301" type="curve" smooth="yes"/>
      <point x="409" y="1243"/>
      <point x="365" y="1195"/>
    </contour>
  </outline>
</glyph>
<glyph name="hungarumlaut" format="1">
  <advance width="972"/>
  <unicode hex="02DD"/>
  <outline>
    <contour>
      <point x="172" y="1143" type="line"/>
      <point x="389" y="1456" type="line"/>
      <point x="559" y="1456" type="line"/>
      <point x="290" y="1143" type="line"/>
    </contour>
    <contour>
      <point x="438" y="1143" type="line"/>
      <point x="652" y="1456" type="line"/>
      <point x="828" y="1456" type="line"/>
      <point x="553" y="1143" type="line"/>
    </contour>
  </outline>
</glyph>
<glyph name="dblgravecmb" format="1">
  <advance width="4"/>
  <unicode hex="030F"/>
  <outline>
    <contour>
      <point x="-22" y="1143" type="line"/>
      <point x="-297" y="1456" type="line"/>
      <point x="-121" y="1456" type="line"/>
      <point x="93" y="1143" type="line"/>
    </contour>
    <contour>
      <point x="241" y="1143" type="line"/>
      <point x="-28" y="1456" type="line"/>
      <point x="142" y="1456" type="line"/>
      <point x="359" y="1143" type="line"/>
    </contour>
  </outline>
</glyph>
<glyph name="uni03A9" format="1">
  <advance width="1572"/>
  <unicode hex="03A9"/>
  <outline>
    <contour>
      <point x="114" y="0" type="line"/>
      <point x="641" y="0" type="line"/>
      <point x="638" y="121" type="line"/>
      <point x="454.242" y="245.956"/>
      <point x="303" y="477"/>
      <point x="303" y="790" type="curve" smooth="yes"/>
      <point x="303" y="1093"/>
      <point x="468" y="1330"/>
      <point x="794" y="1330" type="curve" smooth="yes"/>
      <point x="1094" y="1330"/>
      <point x="1273" y="1126"/>
      <point x="1273" y="785" type="curve" smooth="yes"/>
      <point x="1273" y="509"/>
      <point x="1123.25" y="253.121"/>
      <point x="933" y="121" type="curve"/>
      <point x="937" y="0" type="line"/>
      <point x="1444" y="0" type="line"/>
      <point x="1453" y="138" type="line"/>
      <point x="1131" y="137" type="line"/>
      <point x="1297.05" y="273.398"/>
      <point x="1451" y="497"/>
      <point x="1451" y="803" type="curve" smooth="yes"/>
      <point x="1451" y="1221"/>
      <point x="1212" y="1480"/>
      <point x="798" y="1480" type="curve" smooth="yes"/>
      <point x="383" y="1480"/>
      <point x="124" y="1236"/>
      <point x="124" y="807" type="curve" smooth="yes"/>
      <point x="124" y="524"/>
      <point x="261.857" y="273.162"/>
      <point x="439" y="137" type="curve"/>
      <point x="103" y="138" type="line"/>
    </contour>
  </outline>
</glyph>
<glyph name="quotedblbase" format="1">
  <advance width="1034"/>
  <unicode hex="201E"/>
  <outline>
    <contour>
      <point x="188" y="-238" type="line"/>
      <point x="293" y="201" type="line"/>
      <point x="475" y="201" type="line"/>
      <point x="322" y="-238" type="line"/>
    </contour>
    <contour>
      <point x="547" y="-238" type="line"/>
      <point x="651" y="201" type="line"/>
      <point x="834" y="201" type="line"/>
      <point x="680" y="-238" type="line"/>
    </contour>
  </outline>
</glyph>
<glyph name="bullet" format="1">
  <advance width="991"/>
  <unicode hex="2022"/>
  <outline>
    <contour>
      <point x="499" y="427" type="curve" smooth="yes"/>
      <point x="690" y="427"/>
      <point x="826" y="546"/>
      <point x="826" y="743" type="curve" smooth="yes"/>
      <point x="826" y="901"/>
      <point x="706" y="1052"/>
      <point x="504" y="1052" type="curve" smooth="yes"/>
      <point x="347" y="1052"/>
      <point x="177" y="940"/>
      <point x="177" y="736" type="curve" smooth="yes"/>
      <point x="177" y="574"/>
      <point x="298" y="427"/>
    </contour>
  </outline>
</glyph>
<glyph name="uniF6C3" format="1">
  <advance width="609"/>
  <unicode hex="F6C3"/>
  <outline>
    <contour>
      <point x="120" y="-463" type="line"/>
      <point x="251" y="-463" type="line"/>
      <point x="414" y="0" type="line"/>
      <point x="227" y="0" type="line"/>
    </contour>
  </outline>
</glyph>
